<svg width="1611" height="1359" viewBox="0 0 1611 1359" fill="none" xmlns="http://www.w3.org/2000/svg">
<path opacity="0.010101" d="M509.305 677.696C503.437 671.619 502.149 662.455 506.115 654.996L778.299 143.093C782.265 135.634 790.583 131.576 798.903 133.043L1369.86 233.718C1378.18 235.185 1384.61 241.843 1385.79 250.208L1466.47 824.333C1467.65 832.698 1463.3 840.869 1455.71 844.573L934.621 1098.73C927.028 1102.43 917.914 1100.82 912.045 1094.75L509.305 677.696Z" stroke="#4657FF" stroke-opacity="0.15"/>
<path opacity="0.020202" d="M503.21 670.689C497.449 664.511 496.321 655.325 500.416 647.936L780.955 141.833C785.05 134.445 793.437 130.534 801.73 132.145L1369.75 242.558C1378.05 244.17 1384.36 250.939 1385.39 259.324L1455.91 833.666C1456.94 842.051 1452.45 850.144 1444.8 853.715L920.354 1098.27C912.698 1101.84 903.614 1100.07 897.853 1093.89L503.21 670.689Z" stroke="#4657FF" stroke-opacity="0.15"/>
<path opacity="0.030303" d="M497.278 663.694C491.625 657.416 490.658 648.212 494.882 640.896L783.654 140.728C787.878 133.412 796.333 129.647 804.596 131.404L1369.52 251.483C1377.78 253.239 1383.98 260.116 1384.86 268.518L1445.23 842.899C1446.11 851.3 1441.48 859.314 1433.77 862.75L906.154 1097.66C898.557 1101.04 889.666 1099.23 883.998 1093.18L883.731 1092.89L497.278 663.694Z" stroke="#4657FF" stroke-opacity="0.15"/>
<path opacity="0.040404" d="M491.502 656.713C486.046 650.437 485.18 641.405 489.304 634.217L489.504 633.877L786.389 139.776C790.74 132.535 799.259 128.919 807.491 130.819L1369.15 260.489C1377.38 262.389 1383.45 269.374 1384.19 277.79L1434.43 852.029C1435.17 860.444 1430.4 868.377 1422.62 871.678L892.013 1096.91C884.236 1100.21 875.219 1098.13 869.676 1091.75L491.502 656.713Z" stroke="#4657FF" stroke-opacity="0.15"/>
<path opacity="0.050505" d="M485.883 649.747C480.538 643.377 479.829 634.332 484.079 627.217L484.284 626.88L789.159 138.979C793.635 131.814 802.216 128.348 810.413 130.392L1368.65 269.575C1376.84 271.619 1382.79 278.708 1383.38 287.135L1423.51 861.056C1424.1 869.483 1419.2 877.332 1411.37 880.496L877.936 1096.02C870.104 1099.18 861.124 1096.94 855.693 1090.47L485.883 649.747Z" stroke="#4657FF" stroke-opacity="0.15"/>
<path opacity="0.0606061" d="M480.42 642.799C475.186 636.336 474.636 627.28 479.008 620.24L479.22 619.907L791.958 138.333C796.56 131.248 805.2 127.932 813.36 130.118L1368.01 278.734C1376.17 280.921 1381.99 288.113 1382.43 296.549L1412.48 869.973C1412.93 878.41 1407.89 886.172 1400 889.199L863.926 1094.98C856.039 1098.01 847.1 1095.61 841.783 1089.05L480.42 642.799Z" stroke="#4657FF" stroke-opacity="0.15"/>
<path opacity="0.0707071" d="M475.108 635.872C469.988 629.319 469.596 620.254 474.091 613.292L474.308 612.962L794.782 137.841C799.506 130.837 808.202 127.672 816.323 130L1367.22 287.968C1375.34 290.297 1381.04 297.59 1381.34 306.032L1401.34 878.783C1401.63 887.226 1396.46 894.898 1388.52 897.788L849.98 1093.8C842.165 1096.64 833.423 1094.22 828.19 1087.79L827.944 1087.48L475.108 635.872Z" stroke="#4657FF" stroke-opacity="0.15"/>
<path opacity="0.0808081" d="M469.953 628.972C464.949 622.33 464.715 613.26 469.33 606.378L469.553 606.051L797.633 137.505C802.478 130.585 811.229 127.572 819.308 130.042L1366.3 297.276C1374.38 299.746 1379.95 307.136 1380.1 315.583L1390.08 887.485C1390.23 895.931 1384.92 903.513 1376.93 906.263L836.107 1092.48C828.12 1095.23 819.269 1092.53 814.185 1085.78L469.953 628.972Z" stroke="#4657FF" stroke-opacity="0.15"/>
<path opacity="0.0909091" d="M464.951 622.096C459.986 615.262 459.986 606.007 464.951 599.173L800.506 137.323C805.471 130.488 814.273 127.628 822.308 130.239L1365.25 306.65C1373.28 309.26 1378.72 316.748 1378.72 325.196V896.073C1378.72 904.521 1373.28 912.009 1365.25 914.619L822.308 1091.03C814.273 1093.64 805.471 1090.78 800.506 1083.95L464.951 622.096Z" stroke="#4657FF" stroke-opacity="0.15"/>
<path opacity="0.10101" d="M460.101 615.249C455.255 608.329 455.417 599.075 460.501 592.329L803.396 137.293C808.48 130.546 817.33 127.84 825.318 130.59L1364.04 316.089C1372.03 318.839 1377.34 326.42 1377.19 334.866L1367.25 904.547C1367.1 912.993 1361.53 920.385 1353.45 922.855L808.581 1089.44C800.503 1091.91 791.752 1088.89 786.907 1081.97L460.101 615.249Z" stroke="#4657FF" stroke-opacity="0.15"/>
<path opacity="0.111111" d="M455.404 608.437C450.753 601.543 450.994 592.473 455.964 585.841L456.204 585.527L806.304 137.42C811.505 130.763 820.401 128.212 828.339 131.101L1362.7 325.593C1370.64 328.483 1375.82 336.155 1375.52 344.598L1355.67 912.908C1355.38 921.351 1349.68 928.644 1341.56 930.972L794.934 1087.71C786.813 1090.04 778.116 1086.88 773.392 1079.87L455.404 608.437Z" stroke="#4657FF" stroke-opacity="0.15"/>
<path opacity="0.121212" d="M450.859 601.657C446.258 594.572 446.742 585.33 452.058 578.765L809.227 137.699C814.544 131.134 823.482 128.739 831.369 131.767L1361.22 335.156C1369.11 338.184 1374.15 345.946 1373.7 354.382L1344 921.149C1343.56 929.585 1337.73 936.778 1329.57 938.964L781.367 1085.86C773.207 1088.04 764.568 1084.73 759.967 1077.64L450.859 601.657Z" stroke="#4657FF" stroke-opacity="0.15"/>
<path opacity="0.131313" d="M446.46 594.917C441.983 587.753 442.629 578.521 448.059 572.05L812.156 138.136C817.587 131.664 826.567 129.425 834.399 132.59L1359.59 344.78C1367.42 347.945 1372.33 355.793 1371.74 364.22L1332.22 929.275C1331.63 937.702 1325.68 944.792 1317.49 946.836L767.879 1083.87C759.682 1085.91 751.102 1082.44 746.625 1075.28L446.46 594.917Z" stroke="#4657FF" stroke-opacity="0.15"/>
<path opacity="0.141414" d="M442.214 588.216C437.863 580.974 438.67 571.755 444.212 565.379L815.098 138.725C820.64 132.349 829.658 130.267 837.434 133.568L1357.82 354.457C1365.59 357.758 1370.36 365.691 1369.62 374.107L1320.35 937.279C1319.62 945.694 1313.54 952.678 1305.31 954.579L754.479 1081.75C746.247 1083.65 737.728 1080.03 733.377 1072.79L442.214 588.216Z" stroke="#4657FF" stroke-opacity="0.15"/>
<path opacity="0.151515" d="M438.115 581.556C433.891 574.24 434.858 565.036 440.511 558.758L818.043 139.467C823.695 133.189 832.748 131.265 840.465 134.701L1355.9 364.187C1363.62 367.623 1368.25 375.637 1367.36 384.039L1308.39 945.161C1307.5 953.562 1301.31 960.439 1293.05 962.196L741.163 1079.5C732.899 1081.26 724.445 1077.49 720.221 1070.18L438.115 581.556Z" stroke="#4657FF" stroke-opacity="0.15"/>
<path opacity="0.161616" d="M434.163 574.943C430.068 567.555 431.196 558.369 436.957 552.19L820.992 140.364C826.753 134.186 835.838 132.42 843.495 135.99L1353.84 373.967C1361.49 377.537 1365.98 385.631 1364.95 394.016L1296.33 952.921C1295.3 961.305 1288.98 968.073 1280.69 969.685L727.937 1077.13C719.644 1078.74 711.257 1074.83 707.161 1067.44L434.163 574.943Z" stroke="#4657FF" stroke-opacity="0.15"/>
<path opacity="0.171717" d="M430.358 568.378C426.392 560.919 427.68 551.755 433.548 545.678L823.94 141.416C829.808 135.339 838.922 133.732 846.515 137.435L1351.63 383.796C1359.22 387.499 1363.57 395.67 1362.39 404.035L1284.18 960.556C1283 968.922 1276.57 975.58 1268.25 977.047L714.8 1074.64C706.481 1076.1 698.162 1072.05 694.196 1064.59L430.358 568.378Z" stroke="#4657FF" stroke-opacity="0.15"/>
<path opacity="0.181818" d="M426.699 561.862C422.864 554.335 424.311 545.194 430.285 539.22L826.887 142.619C832.86 136.645 842.001 135.198 849.528 139.033L1349.28 393.667C1356.8 397.502 1361 405.748 1359.68 414.092L1271.94 968.066C1270.62 976.409 1264.08 982.954 1255.73 984.275L701.758 1072.02C693.414 1073.34 685.168 1069.14 681.333 1061.61L426.699 561.862Z" stroke="#4657FF" stroke-opacity="0.15"/>
<path opacity="0.191919" d="M423.182 555.4C419.479 547.807 421.086 538.693 427.163 532.824L829.828 143.976C835.904 138.108 845.068 136.821 852.527 140.787L1346.77 403.582C1354.23 407.548 1358.29 415.866 1356.82 424.186L1259.62 975.449C1258.15 983.769 1251.5 990.198 1243.13 991.374L688.809 1069.28C680.444 1070.45 672.273 1066.11 668.569 1058.52L423.182 555.4Z" stroke="#4657FF" stroke-opacity="0.15"/>
<path opacity="0.20202" d="M419.806 548.99C416.292 541.453 417.948 532.532 423.894 526.76L424.18 526.487L832.757 145.484C838.935 139.723 848.121 138.595 855.51 142.69L1344.12 413.533C1351.51 417.628 1355.42 426.015 1353.81 434.308L1247.21 982.701C1245.6 990.994 1238.83 997.306 1230.45 998.335L675.955 1066.42C667.57 1067.45 659.476 1062.96 655.905 1055.3L419.806 548.99Z" stroke="#4657FF" stroke-opacity="0.15"/>
<path opacity="0.212121" d="M416.574 542.64C413.138 534.923 415.062 525.871 421.34 520.218L835.678 147.147C841.956 141.494 851.16 140.527 858.476 144.751L1341.33 423.523C1348.64 427.747 1352.41 436.202 1350.65 444.465L1234.73 989.828C1232.97 998.091 1226.1 1004.28 1217.69 1005.17L663.201 1063.45C654.799 1064.33 646.784 1059.7 643.348 1051.98L416.574 542.64Z" stroke="#4657FF" stroke-opacity="0.15"/>
<path opacity="0.222222" d="M413.478 536.348C410.177 528.572 412.259 519.554 418.635 514.012L838.583 148.958C844.959 143.416 854.177 142.609 861.418 146.96L1338.38 433.546C1345.62 437.896 1349.24 446.415 1347.33 454.646L1222.16 996.82C1220.26 1005.05 1213.28 1011.12 1204.86 1011.86L650.544 1060.36C642.128 1061.09 634.195 1056.33 630.895 1048.55L413.478 536.348Z" stroke="#4657FF" stroke-opacity="0.15"/>
<path opacity="0.232323" d="M410.526 530.121C407.361 522.288 409.6 513.308 416.071 507.878L841.475 150.923C847.947 145.493 857.179 144.847 864.343 149.323L1335.28 443.6C1342.45 448.077 1345.92 456.658 1343.87 464.855L1209.53 1003.68C1207.48 1011.88 1200.39 1017.83 1191.97 1018.42L637.995 1057.16C629.567 1057.75 621.719 1052.84 618.554 1045.01L410.526 530.121Z" stroke="#4657FF" stroke-opacity="0.15"/>
<path opacity="0.242424" d="M407.704 523.958C404.676 516.071 407.072 507.132 413.637 501.815L844.342 153.037C850.907 147.721 860.149 147.236 867.234 151.837L1332.04 453.684C1339.12 458.285 1342.44 466.925 1340.25 475.084L1196.81 1010.41C1194.62 1018.57 1187.43 1024.4 1179 1024.84L625.542 1053.85C617.106 1054.29 609.344 1049.25 606.317 1041.36L407.704 523.958Z" stroke="#4657FF" stroke-opacity="0.15"/>
<path opacity="0.252525" d="M405.022 517.86C402.133 509.921 404.684 501.026 411.341 495.825L847.192 155.3C853.849 150.099 863.098 149.776 870.102 154.5L1328.64 463.792C1335.65 468.516 1338.81 477.212 1336.49 485.333L1184.03 1017.01C1181.7 1025.13 1174.41 1030.83 1165.97 1031.12L613.199 1050.43C604.756 1050.72 597.084 1045.54 594.194 1037.61L405.022 517.86Z" stroke="#4657FF" stroke-opacity="0.15"/>
<path opacity="0.262626" d="M402.475 511.831C399.725 503.843 402.43 494.992 409.177 489.908L850.018 157.712C856.765 152.628 866.018 152.467 872.938 157.313L1325.1 473.921C1332.02 478.767 1335.04 487.518 1332.57 495.596L1171.18 1023.47C1168.71 1031.55 1161.32 1037.12 1152.87 1037.26L600.964 1046.9C592.65 1047.04 585.174 1041.9 582.318 1034.12L582.186 1033.75L402.475 511.831Z" stroke="#4657FF" stroke-opacity="0.15"/>
<path opacity="0.272727" d="M400.061 505.875C397.45 497.841 400.31 489.039 407.145 484.073L852.817 160.274C859.651 155.309 868.906 155.309 875.74 160.275L1321.41 484.074C1328.25 489.04 1331.11 497.841 1328.5 505.875L1158.26 1029.79C1155.65 1037.83 1148.17 1043.27 1139.72 1043.27L588.838 1043.27C580.391 1043.27 572.903 1037.83 570.293 1029.79L400.061 505.875Z" stroke="#4657FF" stroke-opacity="0.15"/>
<path opacity="0.282828" d="M397.777 499.993C395.307 491.914 398.32 483.164 405.24 478.318L855.585 162.984C862.505 158.138 871.758 158.3 878.505 163.384L1317.57 494.243C1324.32 499.327 1327.02 508.177 1324.27 516.165L1145.29 1035.98C1142.53 1043.97 1134.95 1049.28 1126.51 1049.13L576.822 1039.54C568.375 1039.39 560.984 1033.82 558.514 1025.74L397.777 499.993Z" stroke="#4657FF" stroke-opacity="0.15"/>
<path opacity="0.292929" d="M395.62 494.187C393.292 486.066 396.457 477.37 403.46 472.646L858.32 165.84C865.323 161.116 874.572 161.439 881.229 166.64L1313.58 504.428C1320.23 509.629 1322.79 518.525 1319.9 526.463L1132.24 1042.03C1129.35 1049.97 1121.68 1055.15 1113.24 1054.85L564.915 1035.7C556.472 1035.41 549.18 1029.71 546.852 1021.59L395.62 494.187Z" stroke="#4657FF" stroke-opacity="0.15"/>
<path opacity="0.30303" d="M393.593 488.456C391.407 480.296 394.723 471.656 401.808 467.055L861.021 168.84C868.106 164.239 877.348 164.723 883.913 170.04L1309.44 514.622C1316 519.939 1318.4 528.878 1315.37 536.765L1119.15 1047.94C1116.12 1055.83 1108.36 1060.87 1099.92 1060.43L553.124 1031.77C544.688 1031.33 537.496 1025.51 535.309 1017.35L393.593 488.456Z" stroke="#4657FF" stroke-opacity="0.15"/>
<path opacity="0.313131" d="M391.693 482.809C389.649 474.612 393.116 466.031 400.28 461.555L863.685 171.988C870.849 167.511 880.081 168.157 886.553 173.587L1305.15 524.829C1311.62 530.26 1313.86 539.24 1310.69 547.072L1105.99 1053.72C1102.83 1061.55 1094.98 1066.46 1086.55 1065.87L541.449 1027.75C533.021 1027.16 525.932 1021.21 523.888 1013.01L391.693 482.809Z" stroke="#4657FF" stroke-opacity="0.15"/>
<path opacity="0.323232" d="M389.918 477.241C388.047 469.138 391.523 460.757 398.539 456.347L398.875 456.14L866.31 175.276C873.552 170.925 882.771 171.732 889.147 177.274L1300.71 535.04C1307.09 540.582 1309.17 549.6 1305.87 557.376L1092.79 1059.35C1089.49 1067.13 1081.56 1071.89 1073.14 1071.16L529.89 1023.63C521.475 1022.89 514.49 1016.82 512.59 1008.59L389.918 477.241Z" stroke="#4657FF" stroke-opacity="0.15"/>
<path opacity="0.333333" d="M388.267 471.759C386.511 463.496 390.275 455.042 397.59 450.818L868.895 178.71C876.211 174.487 885.415 175.454 891.693 181.106L1296.12 545.257C1302.4 550.91 1304.33 559.962 1300.89 567.68L1079.54 1064.84C1076.1 1072.56 1068.09 1077.19 1059.68 1076.31L518.451 1019.42C510.05 1018.54 503.172 1012.34 501.416 1004.08L388.267 471.759Z" stroke="#4657FF" stroke-opacity="0.15"/>
<path opacity="0.343434" d="M386.734 466.362C385.123 458.07 389.034 449.682 396.422 445.586L871.432 182.285C878.821 178.189 888.006 179.318 894.184 185.079L1291.39 555.475C1297.56 561.236 1299.33 570.32 1295.76 577.976L1066.23 1070.2C1062.66 1077.85 1054.57 1082.34 1046.18 1081.31L507.129 1015.12C498.744 1014.09 491.976 1007.78 490.364 999.487L386.734 466.362Z" stroke="#4657FF" stroke-opacity="0.15"/>
<path opacity="0.353535" d="M385.321 461.056C383.855 452.736 387.912 444.418 395.371 440.452L873.922 186.002C881.381 182.036 890.545 183.324 896.622 189.193L1286.5 565.692C1292.58 571.56 1294.18 580.675 1290.48 588.268L1052.89 1075.41C1049.18 1083 1041.01 1087.34 1032.65 1086.17L495.928 1010.74C487.562 1009.56 480.905 1003.13 479.438 994.813L385.321 461.056Z" stroke="#4657FF" stroke-opacity="0.15"/>
<path opacity="0.363636" d="M384.03 455.837C382.708 447.494 386.91 439.248 394.437 435.412L876.367 189.858C883.894 186.022 893.034 187.47 899.007 193.443L1281.47 575.904C1287.44 581.878 1288.89 591.018 1285.06 598.545L1039.5 1080.47C1035.66 1088 1027.42 1092.2 1019.07 1090.88L484.852 1006.27C476.508 1004.95 469.965 998.403 468.643 990.06L384.03 455.837Z" stroke="#4657FF" stroke-opacity="0.15"/>
<path opacity="0.373737" d="M382.854 450.713C381.697 442.478 385.889 434.431 393.263 430.649L393.616 430.473L878.759 193.853C886.352 190.15 895.466 191.757 901.335 197.834L1276.29 586.112C1282.16 592.189 1283.45 601.353 1279.48 608.812L1026.07 1085.4C1022.11 1092.86 1013.79 1096.92 1005.47 1095.45L473.9 1001.72C465.58 1000.25 459.152 993.596 457.976 985.23L382.854 450.713Z" stroke="#4657FF" stroke-opacity="0.15"/>
<path opacity="0.383838" d="M381.786 445.68C380.757 437.295 385.243 429.201 392.9 425.63L881.091 197.983C888.748 194.413 897.832 196.179 903.594 202.357L1270.96 596.308C1276.72 602.486 1277.85 611.673 1273.75 619.061L1012.61 1090.18C1008.51 1097.57 1000.12 1101.48 991.829 1099.87L463.066 997.089C454.774 995.477 448.462 988.709 447.432 980.325L381.786 445.68Z" stroke="#4657FF" stroke-opacity="0.15"/>
<path opacity="0.393939" d="M380.834 440.745C379.951 432.343 384.578 424.328 392.296 420.892L883.372 202.252C891.089 198.816 900.141 200.74 905.794 207.017L1265.48 606.494C1271.14 612.772 1272.1 621.976 1267.88 629.292L999.106 1094.82C994.882 1102.14 986.427 1105.9 978.164 1104.15L452.362 992.384C444.099 990.627 437.907 983.75 437.024 975.348L380.834 440.745Z" stroke="#4657FF" stroke-opacity="0.15"/>
<path opacity="0.40404" d="M379.99 435.905C379.254 427.489 384.021 419.556 391.797 416.255L885.591 206.653C893.367 203.352 902.385 205.434 907.927 211.809L1259.86 616.664C1265.4 623.04 1266.21 632.259 1261.86 639.5L985.573 1099.32C981.29 1106.44 972.969 1110.06 964.858 1108.36L964.472 1108.27L441.784 987.602C433.552 985.701 427.481 978.716 426.744 970.301L379.99 435.905Z" stroke="#4657FF" stroke-opacity="0.15"/>
<path opacity="0.414141" d="M379.257 431.166C378.668 422.739 383.572 414.891 391.405 411.727L887.751 211.189C895.584 208.025 904.564 210.264 909.994 216.736L1254.1 626.819C1259.53 633.291 1260.17 642.522 1255.69 649.686L972.014 1103.67C967.537 1110.83 958.957 1114.3 950.76 1112.26L431.335 982.749C423.138 980.705 417.189 973.616 416.6 965.189L379.257 431.166Z" stroke="#4657FF" stroke-opacity="0.15"/>
<path opacity="0.424242" d="M378.629 426.529C378.187 418.093 383.228 410.331 391.114 407.304L889.847 215.859C897.734 212.831 906.673 215.226 911.99 221.792L1248.18 636.954C1253.5 643.52 1253.98 652.762 1249.38 659.847L958.428 1107.88C953.827 1114.96 945.187 1118.28 937.027 1116.09L421.014 977.828C412.854 975.641 407.03 968.449 406.588 960.012L378.629 426.529Z" stroke="#4657FF" stroke-opacity="0.15"/>
<path opacity="0.434343" d="M378.104 421.993C377.809 413.55 382.985 405.878 390.923 402.988L891.878 220.657C899.816 217.767 908.713 220.318 913.914 226.975L1242.13 647.067C1247.33 653.724 1247.65 662.973 1242.93 669.977L944.817 1111.94C940.093 1118.94 931.396 1122.11 923.276 1119.78L410.823 972.837C402.703 970.508 397.005 963.215 396.71 954.773L378.104 421.993Z" stroke="#4657FF" stroke-opacity="0.15"/>
<path opacity="0.444444" d="M377.683 417.563C377.536 409.116 382.844 401.535 390.832 398.785L893.842 225.585C901.705 222.878 910.404 225.457 915.523 231.974L915.764 232.287L1235.93 657.156C1241.01 663.902 1241.17 673.156 1236.33 680.076L931.187 1115.86C926.341 1122.78 917.591 1125.79 909.512 1123.32L400.764 967.783C392.685 965.313 387.116 957.922 386.968 949.475L377.683 417.563Z" stroke="#4657FF" stroke-opacity="0.15"/>
<path opacity="0.454545" d="M377.359 413.239C377.359 404.792 382.799 397.305 390.833 394.694L895.732 230.642C903.767 228.032 912.569 230.892 917.534 237.726L1229.58 667.219C1234.54 674.053 1234.54 683.309 1229.58 690.143L917.535 1119.64C912.647 1126.36 904.041 1129.24 896.11 1126.84L895.733 1126.72L390.833 962.667C382.799 960.057 377.359 952.57 377.359 944.122L377.359 413.239Z" stroke="#4657FF" stroke-opacity="0.15"/>
<path opacity="0.464646" d="M377.139 409.022C377.286 400.576 382.856 393.184 390.935 390.714L897.558 235.825C905.637 233.355 914.387 236.368 919.233 243.288L1223.1 677.251C1227.94 684.171 1227.78 693.424 1222.7 700.171L903.873 1123.27C898.789 1130.01 889.938 1132.72 881.95 1129.97L381.042 957.49C373.179 954.783 367.912 947.396 367.89 939.109L367.894 938.713L377.139 409.022Z" stroke="#4657FF" stroke-opacity="0.15"/>
<path opacity="0.474747" d="M377.008 404.913C377.303 396.47 383.001 389.178 391.122 386.849L899.303 241.131C907.424 238.802 916.121 241.967 920.845 248.971L1216.47 687.25C1221.19 694.254 1220.87 703.503 1215.67 710.16L890.192 1126.75C884.991 1133.41 876.095 1135.96 868.156 1133.07L371.377 952.256C363.439 949.367 358.264 941.694 358.559 933.252L377.008 404.913Z" stroke="#4657FF" stroke-opacity="0.15"/>
<path opacity="0.484848" d="M376.97 400.915C377.412 392.479 383.237 385.287 391.396 383.1L900.971 246.56C909.131 244.374 917.771 247.69 922.372 254.775L1209.7 697.216C1214.3 704.301 1213.81 713.543 1208.5 720.108L876.499 1130.09C871.182 1136.66 862.242 1139.05 854.356 1136.02L361.846 946.967C353.959 943.94 348.919 936.178 349.361 927.741L376.97 400.915Z" stroke="#4657FF" stroke-opacity="0.15"/>
<path opacity="0.494949" d="M377.027 397.028C377.616 388.601 383.565 381.512 391.761 379.468L902.563 252.111C910.76 250.067 919.34 253.534 923.817 260.699L1202.79 707.143C1207.26 714.307 1206.62 723.54 1201.19 730.011L862.8 1133.29C857.37 1139.76 848.39 1142 840.557 1138.83L352.452 941.624C344.619 938.46 339.714 930.612 340.304 922.185L377.027 397.028Z" stroke="#4657FF" stroke-opacity="0.15"/>
<path opacity="0.50505" d="M377.176 393.257C377.913 384.841 383.984 377.857 392.216 375.956L904.08 257.784C912.182 255.913 920.564 259.388 924.974 266.403L925.181 266.741L1195.74 717.035C1200.1 724.276 1199.29 733.494 1193.75 739.87L849.1 1136.34C843.558 1142.72 834.541 1144.8 826.764 1141.5L343.198 936.235C335.543 932.986 330.805 925.248 331.361 916.98L331.391 916.586L377.176 393.257Z" stroke="#4657FF" stroke-opacity="0.15"/>
<path opacity="0.515152" d="M377.406 389.601C378.289 381.199 384.482 374.321 392.745 372.565L905.506 263.575C913.77 261.818 922.224 265.582 926.448 272.898L1188.56 726.883C1192.78 734.199 1191.81 743.403 1186.16 749.681L835.391 1139.25C829.738 1145.53 820.686 1147.45 812.969 1144.02L334.073 930.798C326.355 927.362 321.728 919.347 322.611 910.945L377.406 389.601Z" stroke="#4657FF" stroke-opacity="0.15"/>
<path opacity="0.525253" d="M377.721 386.058C378.75 377.673 385.062 370.905 393.355 369.293L906.85 269.48C915.142 267.868 923.53 271.779 927.626 279.167L1181.23 736.686C1185.33 744.074 1184.2 753.26 1178.44 759.439L821.682 1142.01C815.92 1148.19 806.836 1149.96 799.179 1146.39L325.085 925.313C317.428 921.743 312.941 913.649 313.97 905.264L377.721 386.058Z" stroke="#4657FF" stroke-opacity="0.15"/>
<path opacity="0.535354" d="M378.122 382.634C379.298 374.269 385.726 367.612 394.046 366.145L908.111 275.502C916.43 274.035 924.748 278.091 928.714 285.55L1173.78 746.444C1177.74 753.903 1176.45 763.067 1170.59 769.144L807.977 1144.64C802.109 1150.71 792.995 1152.32 785.402 1148.62L316.236 919.789C308.762 916.144 304.435 908.169 305.423 899.941L305.475 899.549L378.122 382.634Z" stroke="#4657FF" stroke-opacity="0.15"/>
<path opacity="0.545455" d="M378.603 379.328C379.925 370.985 386.469 364.44 394.813 363.119L909.284 281.635C917.628 280.314 925.874 284.515 929.709 292.042L1166.19 756.153C1170.02 763.68 1168.57 772.82 1162.6 778.794L794.278 1147.11C788.304 1153.09 779.164 1154.54 771.637 1150.7L307.527 914.224C299.999 910.389 295.798 902.143 297.119 893.799L378.603 379.328Z" stroke="#4657FF" stroke-opacity="0.15"/>
<path opacity="0.555556" d="M379.16 376.142C380.627 367.822 387.284 361.393 395.65 360.217L910.364 287.879C918.73 286.703 926.902 291.048 930.605 298.641L1158.46 765.81C1162.16 773.402 1160.55 782.516 1154.48 788.385L780.584 1149.45C774.507 1155.32 765.343 1156.61 757.884 1152.64L298.951 908.621C291.492 904.655 287.435 896.337 288.902 888.017L379.16 376.142Z" stroke="#4657FF" stroke-opacity="0.15"/>
<path opacity="0.565657" d="M379.795 373.078C381.407 364.785 388.176 358.474 396.561 357.444L911.357 294.234C919.741 293.205 927.836 297.692 931.406 305.348L1150.6 775.415C1154.17 783.071 1152.41 792.156 1146.23 797.918L766.903 1151.64C760.725 1157.41 751.539 1158.53 744.15 1154.44L290.518 902.985C283.13 898.89 279.218 890.502 280.83 882.209L379.795 373.078Z" stroke="#4657FF" stroke-opacity="0.15"/>
<path opacity="0.575758" d="M380.503 370.133C382.26 361.87 389.137 355.678 397.538 354.794L912.254 300.695C920.656 299.813 928.67 304.44 932.106 312.158L1142.61 784.963C1146.05 792.681 1144.12 801.733 1137.85 807.386L753.232 1153.69C746.954 1159.35 737.75 1160.31 730.434 1156.09L282.222 897.316C274.906 893.092 271.142 884.637 272.899 876.374L380.503 370.133Z" stroke="#4657FF" stroke-opacity="0.15"/>
<path opacity="0.585859" d="M381.281 367.314C383.181 359.082 390.166 353.011 398.582 352.274L913.056 307.264C921.471 306.528 929.404 311.294 932.705 319.071L1134.49 794.455C1137.8 802.231 1135.71 811.249 1129.34 816.792L739.576 1155.61C733.2 1161.15 723.981 1161.96 716.739 1157.6L274.064 891.618C266.823 887.267 263.207 878.748 265.107 870.517L381.281 367.314Z" stroke="#4657FF" stroke-opacity="0.15"/>
<path opacity="0.59596" d="M382.126 364.617C384.17 356.42 391.26 350.471 399.687 349.882L913.76 313.934C922.187 313.345 930.036 318.249 933.201 326.082L1126.25 803.886C1129.41 811.719 1127.17 820.699 1120.7 826.129L725.936 1157.38C719.465 1162.81 710.232 1163.45 703.068 1158.97L266.044 885.892C258.88 881.415 255.413 872.834 257.457 864.637L382.126 364.617Z" stroke="#4657FF" stroke-opacity="0.15"/>
<path opacity="0.606061" d="M383.039 362.045C385.191 354.013 392.194 348.244 400.46 347.644L400.854 347.619L914.367 320.707C922.804 320.265 930.565 325.306 933.593 333.193L1117.87 813.256C1120.9 821.143 1118.5 830.081 1111.94 835.398L712.316 1159.01C705.751 1164.32 696.509 1164.81 689.424 1160.21L258.166 880.142C251.191 875.613 247.868 867.17 249.851 859.124L249.95 858.742L383.039 362.045Z" stroke="#4657FF" stroke-opacity="0.15"/>
<path opacity="0.616162" d="M384.016 359.599C386.345 351.479 393.637 345.782 402.08 345.487L914.874 327.579C923.317 327.285 930.99 332.46 933.879 340.398L1109.37 822.56C1112.26 830.499 1109.71 839.395 1103.05 844.596L698.719 1160.5C692.062 1165.7 682.813 1166.02 675.81 1161.3L250.425 874.371C243.421 869.647 240.256 860.95 242.585 852.829L384.016 359.599Z" stroke="#4657FF" stroke-opacity="0.15"/>
<path opacity="0.626263" d="M385.056 357.282C387.526 349.203 394.918 343.633 403.364 343.486L915.282 334.55C923.728 334.403 931.309 339.711 934.06 347.699L1100.75 831.8C1103.5 839.787 1100.79 848.638 1094.05 853.722L685.149 1161.85C678.402 1166.93 669.149 1167.09 662.228 1162.25L242.827 868.58C235.906 863.734 232.894 854.984 235.363 846.905L385.056 357.282Z" stroke="#4657FF" stroke-opacity="0.15"/>
<path opacity="0.636364" d="M386.151 355.091C388.762 347.057 396.249 341.617 404.697 341.617L915.582 341.617C924.03 341.617 931.517 347.057 934.128 355.091L1092 840.971C1094.61 849.005 1091.75 857.807 1084.92 862.773L671.601 1163.06C664.767 1168.03 655.511 1168.03 648.677 1163.06L235.363 862.772C228.636 857.884 225.759 849.28 228.161 841.349L228.279 840.971L386.151 355.091Z" stroke="#4657FF" stroke-opacity="0.15"/>
<path opacity="0.646465" d="M387.31 353.028C390.061 345.04 397.642 339.732 406.088 339.879L915.785 348.776C924.099 348.922 931.391 354.32 933.973 362.195L934.092 362.573L1083.14 850.071C1085.61 858.15 1082.59 866.9 1075.67 871.745L658.09 1164.14C651.17 1168.98 641.917 1168.82 635.171 1163.74L228.047 856.95C221.3 851.866 218.594 843.016 221.345 835.028L387.31 353.028Z" stroke="#4657FF" stroke-opacity="0.15"/>
<path opacity="0.656566" d="M388.518 351.094C391.407 343.156 399.079 337.982 407.522 338.276L915.875 356.028C924.318 356.323 931.61 362.021 933.939 370.142L1074.15 859.099C1076.47 867.22 1073.31 875.916 1066.31 880.64L644.605 1165.08C637.601 1169.8 628.352 1169.48 621.695 1164.28L220.863 851.117C214.206 845.915 211.656 837.019 214.545 829.081L388.518 351.094Z" stroke="#4657FF" stroke-opacity="0.15"/>
<path opacity="0.666667" d="M389.777 349.289C392.805 341.402 400.567 336.362 409.003 336.804L915.858 363.367C924.295 363.809 931.487 369.633 933.674 377.793L1065.04 868.05C1067.22 876.21 1063.91 884.85 1056.82 889.452L631.154 1165.88C624.069 1170.48 614.827 1170 608.262 1164.68L213.82 845.272C207.255 839.955 204.859 831.016 207.887 823.129L389.777 349.289Z" stroke="#4657FF" stroke-opacity="0.15"/>
<path opacity="0.676768" d="M391.087 347.616C394.252 339.783 402.101 334.879 410.528 335.468L915.735 370.796C924.162 371.385 931.252 377.334 933.296 385.531L1055.81 876.928C1057.86 885.124 1054.39 893.705 1047.23 898.181L617.741 1166.55C610.577 1171.03 601.345 1170.39 594.874 1164.96L206.917 839.422C200.446 833.992 198.207 825.012 201.372 817.179L391.087 347.616Z" stroke="#4657FF" stroke-opacity="0.15"/>
<path opacity="0.686869" d="M392.445 346.072C395.746 338.296 403.679 333.53 412.095 334.266L915.502 378.308C923.918 379.045 930.902 385.116 932.803 393.348L1046.48 885.725C1048.38 893.956 1044.76 902.476 1037.52 906.827L604.369 1167.09C597.241 1171.37 588.195 1170.66 581.833 1165.35L581.532 1165.09L200.155 833.567C193.779 828.024 191.697 819.007 194.998 811.23L392.445 346.072Z" stroke="#4657FF" stroke-opacity="0.15"/>
<path opacity="0.69697" d="M393.848 344.66C397.23 337.063 405.05 332.461 413.307 333.162L413.7 333.199L915.157 385.904C923.558 386.787 930.436 392.979 932.192 401.243L1037.02 894.443C1038.78 902.706 1035.02 911.161 1027.7 915.385L591.036 1167.49C583.719 1171.72 574.515 1170.75 568.237 1165.1L193.529 827.71C187.251 822.057 185.327 813.004 188.763 805.287L393.848 344.66Z" stroke="#4657FF" stroke-opacity="0.15"/>
<path opacity="0.707071" d="M395.291 343.383C398.861 335.726 406.956 331.239 415.341 332.269L914.698 393.583C923.083 394.613 929.851 400.924 931.463 409.216L1027.46 903.08C1029.07 911.373 1025.16 919.76 1017.77 923.856L577.745 1167.77C570.356 1171.86 561.171 1170.74 554.992 1164.97L187.042 821.855C180.864 816.093 179.099 807.009 182.669 799.353L395.291 343.383Z" stroke="#4657FF" stroke-opacity="0.15"/>
<path opacity="0.717172" d="M396.773 342.235C400.476 334.642 408.648 330.297 417.013 331.473L914.125 401.337C922.491 402.513 929.148 408.942 930.615 417.261L1017.79 911.631C1019.25 919.951 1015.2 928.269 1007.74 932.235L564.5 1167.91C557.041 1171.87 547.876 1170.59 541.799 1164.72L180.693 816.002C174.616 810.133 173.009 801.019 176.712 793.426L396.773 342.235Z" stroke="#4657FF" stroke-opacity="0.15"/>
<path opacity="0.727273" d="M398.297 341.222C402.133 333.695 410.379 329.493 418.723 330.815L913.442 409.17C921.786 410.492 928.329 417.036 929.651 425.38L1008.01 920.098C1009.33 928.442 1005.13 936.688 997.6 940.524L551.308 1167.92C543.781 1171.76 534.639 1170.31 528.666 1164.33L174.486 810.155C168.513 804.182 167.065 795.041 170.9 787.514L398.297 341.222Z" stroke="#4657FF" stroke-opacity="0.15"/>
<path opacity="0.737374" d="M399.851 340.34C403.817 332.882 412.135 328.825 420.454 330.292L912.636 417.076C920.956 418.543 927.385 425.201 928.56 433.566L998.116 928.476C999.292 936.842 994.947 945.014 987.354 948.717L538.159 1167.8C530.567 1171.51 521.452 1169.9 515.584 1163.82L168.411 804.315C162.543 798.238 161.255 789.074 165.221 781.615L399.851 340.34Z" stroke="#4657FF" stroke-opacity="0.15"/>
<path opacity="0.747475" d="M401.439 339.595C405.534 332.206 413.922 328.295 422.215 329.907L911.716 425.057C920.009 426.669 926.321 433.437 927.35 441.822L988.122 936.769C989.151 945.153 984.665 953.247 977.009 956.817L525.065 1167.56C517.409 1171.13 508.324 1169.37 502.563 1163.19L162.476 798.489C156.715 792.311 155.586 783.125 159.681 775.736L401.439 339.595Z" stroke="#4657FF" stroke-opacity="0.15"/>
<path opacity="0.757576" d="M403.062 338.981C407.286 331.665 415.741 327.901 424.004 329.657L910.684 433.104C918.947 434.861 925.14 441.738 926.023 450.14L978.031 944.966C978.915 953.368 974.287 961.383 966.57 964.819L512.032 1167.19C504.315 1170.63 495.262 1168.7 489.609 1162.43L156.682 792.672C151.029 786.394 150.062 777.19 154.286 769.874L403.062 338.981Z" stroke="#4657FF" stroke-opacity="0.15"/>
<path opacity="0.767677" d="M404.704 338.502C409.055 331.261 417.574 327.645 425.805 329.545L909.523 441.22C917.754 443.12 923.826 450.105 924.563 458.52L967.83 953.073C968.566 961.488 963.8 969.422 956.023 972.722L499.047 1166.7C491.27 1170 482.252 1167.92 476.71 1161.54L151.016 786.871C145.473 780.496 144.667 771.276 149.018 764.035L404.704 338.502Z" stroke="#4657FF" stroke-opacity="0.15"/>
<path opacity="0.777778" d="M406.376 338.159C410.853 330.995 419.433 327.528 427.63 329.572L908.248 449.403C916.445 451.447 922.394 458.536 922.983 466.964L957.535 961.087C958.125 969.514 953.22 977.362 945.387 980.527L486.124 1166.08C478.292 1169.25 469.313 1167.01 463.882 1160.54L145.489 781.091C140.059 774.62 139.414 765.387 143.89 758.223L406.376 338.159Z" stroke="#4657FF" stroke-opacity="0.15"/>
<path opacity="0.787879" d="M408.07 337.95C412.671 330.865 421.311 327.548 429.471 329.735L906.851 457.649C915.01 459.835 920.835 467.027 921.277 475.464L947.142 969.005C947.584 977.442 942.544 985.204 934.657 988.231L473.263 1165.34C465.376 1168.37 456.437 1165.98 451.121 1159.41L140.098 775.33C134.782 768.765 134.297 759.522 138.899 752.437L408.07 337.95Z" stroke="#4657FF" stroke-opacity="0.15"/>
<path opacity="0.79798" d="M409.781 337.874C414.505 330.87 423.202 327.705 431.323 330.033L905.33 465.952C913.45 468.281 919.147 475.574 919.442 484.017L936.651 976.824C936.946 985.267 931.772 992.94 923.833 995.829L460.462 1164.48C452.524 1167.37 443.628 1164.82 438.427 1158.16L134.839 769.589C129.638 762.932 129.314 753.683 134.038 746.679L409.781 337.874Z" stroke="#4657FF" stroke-opacity="0.15"/>
<path opacity="0.808081" d="M411.512 337.934C416.357 331.014 425.108 328.001 433.186 330.471L903.686 474.318C911.765 476.788 917.334 484.178 917.482 492.625L926.069 984.548C926.216 992.994 920.908 1000.57 912.92 1003.33L447.727 1163.5C439.739 1166.25 430.89 1163.55 425.806 1156.8L129.713 763.875C124.63 757.128 124.469 747.876 129.314 740.956L411.512 337.934Z" stroke="#4657FF" stroke-opacity="0.15"/>
<path opacity="0.818182" d="M413.263 338.127C418.151 331.4 426.756 328.524 434.688 330.926L435.064 331.044L901.925 482.736C909.959 485.347 915.399 492.834 915.399 501.282L915.399 992.168C915.399 1000.62 909.96 1008.1 901.926 1010.71L435.065 1162.41C427.03 1165.02 418.228 1162.16 413.263 1155.32L124.727 758.187C119.761 751.352 119.761 742.098 124.727 735.263L413.263 338.127Z" stroke="#4657FF" stroke-opacity="0.15"/>
<path opacity="0.828283" d="M415.018 338.456C420.023 331.815 428.677 329.09 436.565 331.63L436.94 331.754L900.032 491.21C908.019 493.96 913.328 501.541 913.18 509.988L904.633 999.688C904.485 1008.13 898.916 1015.53 890.837 1018L422.462 1161.19C414.384 1163.66 405.633 1160.65 400.787 1153.73L119.864 752.529C115.018 745.609 115.179 736.355 120.263 729.609L415.018 338.456Z" stroke="#4657FF" stroke-opacity="0.15"/>
<path opacity="0.838384" d="M416.788 338.919C421.989 332.262 430.885 329.711 438.823 332.6L898.018 499.733C905.956 502.622 911.132 510.295 910.837 518.738L893.783 1007.1C893.488 1015.55 887.79 1022.84 879.669 1025.17L409.935 1159.86C401.814 1162.19 393.118 1159.03 388.394 1152.02L115.136 746.901C110.412 739.898 110.735 730.648 115.936 723.991L416.788 338.919Z" stroke="#4657FF" stroke-opacity="0.15"/>
<path opacity="0.848485" d="M418.565 339.518C423.798 333.055 432.542 330.634 440.337 333.447L440.707 333.585L895.878 508.308C903.765 511.336 908.806 519.098 908.364 527.534L882.846 1014.42C882.404 1022.86 876.58 1030.05 868.421 1032.23L397.48 1158.42C389.32 1160.61 380.68 1157.29 376.079 1150.21L110.538 741.31C105.937 734.225 106.422 724.983 111.738 718.418L418.565 339.518Z" stroke="#4657FF" stroke-opacity="0.15"/>
<path opacity="0.858586" d="M420.348 340.249C425.693 333.878 434.478 331.61 442.223 334.559L442.59 334.703L893.612 516.928C901.445 520.092 906.35 527.941 905.76 536.368L871.827 1021.63C871.238 1030.05 865.289 1037.14 857.092 1039.19L385.099 1156.87C376.902 1158.91 368.321 1155.44 363.844 1148.28L106.069 735.753C101.592 728.589 102.238 719.357 107.668 712.885L420.348 340.249Z" stroke="#4657FF" stroke-opacity="0.15"/>
<path opacity="0.868687" d="M422.134 341.115C427.676 334.739 436.694 332.657 444.47 335.958L891.221 525.592C898.997 528.893 903.764 536.826 903.027 545.241L860.727 1028.73C859.991 1037.14 853.92 1044.13 845.689 1046.03L372.796 1155.2C364.564 1157.1 356.045 1153.49 351.694 1146.25L101.73 730.235C97.3789 722.994 98.1856 713.775 103.728 707.399L422.134 341.115Z" stroke="#4657FF" stroke-opacity="0.15"/>
<path opacity="0.878788" d="M423.921 342.115C429.573 335.837 438.626 333.913 446.343 337.349L888.702 534.3C896.298 537.682 900.901 545.501 900.201 553.758L900.163 554.153L849.548 1035.72C848.665 1044.12 842.472 1051 834.209 1052.76L360.57 1153.43C352.306 1155.19 343.852 1151.42 339.628 1144.11L97.5179 724.759C93.2941 717.443 94.2617 708.24 99.9144 701.962L423.921 342.115Z" stroke="#4657FF" stroke-opacity="0.15"/>
<path opacity="0.888889" d="M425.704 343.249C431.465 337.071 440.55 335.305 448.206 338.875L886.052 543.046C893.709 546.616 898.196 554.711 897.166 563.096L838.29 1042.6C837.26 1050.99 830.949 1057.76 822.656 1059.37L348.423 1151.55C340.13 1153.16 331.742 1149.25 327.646 1141.86L93.4302 719.326C89.3346 711.937 90.4627 702.751 96.2241 696.573L425.704 343.249Z" stroke="#4657FF" stroke-opacity="0.15"/>
<path opacity="0.89899" d="M427.485 344.516C433.354 338.439 442.467 336.832 450.06 340.535L883.278 551.829C890.87 555.532 895.215 563.704 894.04 572.07L826.959 1049.38C825.783 1057.74 819.354 1064.4 811.035 1065.87L336.358 1149.57C328.039 1151.03 319.721 1146.97 315.755 1139.52L89.4701 713.937C85.5041 706.478 86.7922 697.313 92.6606 691.236L427.485 344.516Z" stroke="#4657FF" stroke-opacity="0.15"/>
<path opacity="0.909091" d="M429.259 345.917C435.233 339.944 444.374 338.496 451.901 342.331L880.375 560.649C887.902 564.485 892.103 572.731 890.782 581.075L815.555 1056.04C814.233 1064.39 807.689 1070.93 799.345 1072.25L324.378 1147.48C316.034 1148.8 307.788 1144.6 303.953 1137.07L85.6346 708.597C81.7995 701.07 83.2464 691.929 89.2198 685.956L429.259 345.917Z" stroke="#4657FF" stroke-opacity="0.15"/>
<path opacity="0.919192" d="M431.022 347.447C437.099 341.579 446.264 340.291 453.723 344.257L877.34 569.499C884.799 573.465 888.857 581.783 887.39 590.102L804.077 1062.59C802.61 1070.91 795.953 1077.34 787.588 1078.51L312.479 1145.29C304.114 1146.46 295.943 1142.12 292.24 1134.52L81.9188 703.304C78.2155 695.711 79.8229 686.597 85.8997 680.728L431.022 347.447Z" stroke="#4657FF" stroke-opacity="0.15"/>
<path opacity="0.929293" d="M432.778 349.112C438.956 343.351 448.142 342.223 455.531 346.318L874.181 578.38C881.57 582.476 885.481 590.863 883.869 599.156L792.536 1069.03C790.924 1077.32 784.155 1083.63 775.77 1084.66L300.672 1143C292.287 1144.02 284.193 1139.54 280.623 1131.88L78.3301 698.064C74.7598 690.407 76.5259 681.322 82.7043 675.561L432.778 349.112Z" stroke="#4657FF" stroke-opacity="0.15"/>
<path opacity="0.939394" d="M434.516 350.908C440.794 345.255 449.997 344.288 457.313 348.511L870.888 587.288C878.204 591.512 881.968 599.967 880.212 608.23L780.923 1075.35C779.166 1083.61 772.288 1089.8 763.887 1090.69L288.949 1140.61C280.548 1141.49 272.533 1136.86 269.096 1129.14L74.8576 692.876C71.4216 685.159 73.345 676.106 79.6229 670.454L434.516 350.908Z" stroke="#4657FF" stroke-opacity="0.15"/>
<path opacity="0.949495" d="M436.24 352.836C442.615 347.294 451.835 346.487 459.076 350.838L867.468 596.225C874.709 600.576 878.325 609.095 876.425 617.327L769.249 1081.56C767.348 1089.79 760.364 1095.86 751.948 1096.6L277.317 1138.12C268.902 1138.86 260.969 1134.09 257.668 1126.32L71.5061 687.748C68.2053 679.971 70.2874 670.954 76.663 665.412L436.24 352.836Z" stroke="#4657FF" stroke-opacity="0.15"/>
<path opacity="0.959596" d="M437.949 354.892C444.42 349.462 453.652 348.816 460.817 353.293L863.921 605.181C871.085 609.657 874.552 618.238 872.509 626.435L757.515 1087.65C755.472 1095.84 748.382 1101.79 739.955 1102.38L265.78 1135.54C257.353 1136.13 249.504 1131.23 246.34 1123.39L68.2771 682.672C65.1125 674.84 67.3516 665.86 73.8231 660.43L437.949 354.892Z" stroke="#4657FF" stroke-opacity="0.15"/>
<path opacity="0.969697" d="M439.633 357.08C446.199 351.763 455.441 351.279 462.526 355.88L860.242 614.159C867.327 618.76 870.643 627.4 868.457 635.56L745.719 1093.62C743.532 1101.78 736.341 1107.61 727.905 1108.05L254.333 1132.87C245.897 1133.31 238.135 1128.27 235.107 1120.38L65.1608 677.659C62.1335 669.773 64.529 660.833 71.0941 655.517L439.633 357.08Z" stroke="#4657FF" stroke-opacity="0.15"/>
<path opacity="0.979798" d="M441.296 359.393C447.953 354.192 457.202 353.869 464.205 358.593L856.432 623.153C863.435 627.877 866.601 636.573 864.273 644.694L733.866 1099.48C731.537 1107.6 724.244 1113.3 715.801 1113.59L242.979 1130.1C234.536 1130.4 226.864 1125.22 223.974 1117.28L62.1608 672.704C59.2718 664.766 61.8229 655.87 68.4797 650.669L441.296 359.393Z" stroke="#4657FF" stroke-opacity="0.15"/>
<path opacity="0.989899" d="M442.932 361.838C449.679 356.754 458.932 356.592 465.852 361.438L852.491 632.166C859.411 637.011 862.425 645.762 859.955 653.841L721.955 1105.22C719.485 1113.29 712.094 1118.86 703.648 1119.01L231.72 1127.25C223.273 1127.4 215.692 1122.09 212.942 1114.1L59.274 667.817C56.5236 659.829 59.2296 650.979 65.9764 645.894L442.932 361.838Z" stroke="#4657FF" stroke-opacity="0.15"/>
<path d="M444.546 364.41C451.38 359.445 460.635 359.445 467.47 364.41L848.427 641.191C855.261 646.157 858.121 654.959 855.511 662.993L709.998 1110.83C707.387 1118.87 699.9 1124.31 691.452 1124.31H220.563C212.116 1124.31 204.628 1118.87 202.018 1110.83L56.5049 662.993C53.8944 654.959 56.7544 646.157 63.5889 641.191L444.546 364.41Z" stroke="#4657FF" stroke-opacity="0.15"/>
</svg>
